# xmcd CD database file
#
# Track frame offsets:
#	150
#	16355
#	32887
#	52290
#
# Disc length: 912 seconds
#
# Revision: 0
# Processed by: cddbd v1.5.1PL2 Copyright (c) Steve Scherf et al.
# Submitted via: CDex 1.51
#
DISCID=32038e04
DTITLE=Gen - きみの声
DYEAR=2000
DGENRE=JPop
TTITLE0=きみの声
TTITLE1=Busy Man
TTITLE2=Freeway
TTITLE3=きみの声 (Instrumental)
EXTD=YEAR: 2000
EXTT0=
EXTT1=
EXTT2=
EXTT3=
PLAYORDER=
